<svg width="64" height="64" viewBox="0 0 64 64" fill="none" xmlns="http://www.w3.org/2000/svg">
<rect x="24" y="12" width="38" height="46" rx="4" fill="#8C5C14"/>
<rect x="25" y="12.793" width="34" height="43.6207" rx="4" fill="white"/>
<rect x="25" y="12" width="31" height="45.2069" rx="4" fill="#622F00"/>
<rect x="25" y="13.7693" width="29" height="41.5769" rx="4" fill="#411F00"/>
<rect x="13" y="8.8623" width="38" height="49.1377" rx="4" fill="#838C14"/>
<rect x="14" y="9.70947" width="35" height="46.5961" rx="4" fill="white"/>
<rect x="13" y="8.8623" width="33" height="48.1927" rx="4" fill="#624600"/>
<rect x="13" y="10.7522" width="31" height="44.4129" rx="4" fill="#3E2C00"/>
<rect x="1" y="6" width="38" height="52" rx="4" fill="#8C6314"/>
<rect x="2" y="6.89648" width="34" height="49.3103" rx="4" fill="white"/>
<rect x="1" y="6" width="31" height="51.1034" rx="4" fill="#005062"/>
<rect x="2" y="7" width="28" height="49" rx="4" fill="#000C35"/>
</svg>
