<svg width="43" height="43" viewBox="0 0 43 43" fill="none" xmlns="http://www.w3.org/2000/svg">
<rect x="17.2693" y="9.46143" width="21.9231" height="26.5385" rx="4" fill="#8C5C14"/>
<rect x="17.8462" y="9.91895" width="19.6154" height="25.1658" rx="4" fill="white"/>
<rect x="17.8462" y="9.46143" width="17.8846" height="26.0809" rx="4" fill="#622F00"/>
<rect x="17.8462" y="10.4822" width="16.7308" height="23.9867" rx="4" fill="#411F00"/>
<rect x="10.9231" y="7.65137" width="21.9231" height="28.3487" rx="4" fill="#838C14"/>
<rect x="11.5" y="8.14014" width="20.1923" height="26.8824" rx="4" fill="white"/>
<rect x="10.9231" y="7.65137" width="19.0385" height="27.8035" rx="4" fill="#624600"/>
<rect x="10.9231" y="8.7417" width="17.8846" height="25.6228" rx="4" fill="#3E2C00"/>
<rect x="4" y="6" width="21.9231" height="30" rx="4" fill="#8C6314"/>
<rect x="4.5769" y="6.51709" width="19.6154" height="28.4483" rx="4" fill="white"/>
<rect x="4" y="6" width="17.8846" height="29.4828" rx="4" fill="#005062"/>
<rect x="4.5769" y="6.5769" width="16.1538" height="28.2692" rx="4" fill="#000C35"/>
</svg>
