<svg width="180" height="37" viewBox="0 0 180 37" fill="none" xmlns="http://www.w3.org/2000/svg">
<path d="M37.748 27V24.888H39.398V14.108H37.77V11.996H45.69V14.108H43.578V27H37.748ZM43.578 27V24.756H51.718V27H43.578ZM47.208 24.756C48.0147 24.756 48.5793 24.5727 48.902 24.206C49.2393 23.8247 49.408 23.2087 49.408 22.358V21.61H51.718V24.756H47.208ZM53.2131 27V24.888H55.0171V14.108H53.2571V11.996H60.9571V14.108H59.1971V24.888H61.0011V27H53.2131ZM62.7558 27V24.888H64.4058V14.108H62.7778V11.996H68.5858V27H62.7558ZM68.5858 27V24.756H71.5338C72.2671 24.756 72.8465 24.5727 73.2718 24.206C73.7118 23.8393 73.9318 23.304 73.9318 22.6C73.9318 21.9107 73.7118 21.3827 73.2718 21.016C72.8465 20.6347 72.2671 20.444 71.5338 20.444H68.5858V19.08H72.9418C74.5551 19.08 75.8238 19.3807 76.7478 19.982C77.6865 20.5833 78.1558 21.566 78.1558 22.93C78.1558 24.3233 77.6865 25.35 76.7478 26.01C75.8238 26.67 74.5551 27 72.9418 27H68.5858ZM68.5858 19.454V18.244H70.8958C71.5998 18.244 72.1498 18.0753 72.5458 17.738C72.9418 17.386 73.1398 16.88 73.1398 16.22C73.1398 15.5453 72.9418 15.0393 72.5458 14.702C72.1498 14.3647 71.5998 14.196 70.8958 14.196H68.5858V11.996H72.1718C73.7411 11.996 74.9878 12.3113 75.9118 12.942C76.8505 13.558 77.3198 14.5187 77.3198 15.824C77.3198 17.0853 76.8505 18.0093 75.9118 18.596C74.9878 19.168 73.7485 19.454 72.1938 19.454H68.5858ZM79.664 27V24.888H81.314V14.042H79.686V11.93H85.494V24.888H86.99V27H79.664ZM91.94 27.176C91.016 27.176 90.2607 27.022 89.674 26.714C89.0873 26.3913 88.6473 25.944 88.354 25.372C88.0607 24.7853 87.8773 24.096 87.804 23.304L87.716 22.38C87.6573 21.632 87.4887 21.1333 87.21 20.884C86.9313 20.6347 86.4767 20.51 85.846 20.51H85.494V19.982H88.728C89.916 19.9673 90.7447 20.2533 91.214 20.84C91.698 21.4267 91.94 22.2627 91.94 23.348V23.81C91.94 24.0887 91.9913 24.3087 92.094 24.47C92.1967 24.6167 92.38 24.69 92.644 24.69C92.8933 24.69 93.0693 24.6167 93.172 24.47C93.2893 24.3087 93.348 24.0887 93.348 23.81V20.906H95.812V23.37C95.812 24.5287 95.504 25.4527 94.888 26.142C94.272 26.8313 93.2893 27.176 91.94 27.176ZM85.494 20.51V18.31H88.574C89.3513 18.31 89.96 18.1413 90.4 17.804C90.8547 17.452 91.082 16.924 91.082 16.22C91.082 15.5013 90.8547 14.9733 90.4 14.636C89.96 14.2987 89.3513 14.13 88.574 14.13H85.494V11.93H89.894C91.522 11.93 92.8273 12.2673 93.81 12.942C94.8074 13.602 95.306 14.6067 95.306 15.956C95.306 17.3053 94.822 18.3247 93.854 19.014C92.886 19.6887 91.6027 20.026 90.004 20.026H88.442L87.914 20.51H85.494ZM105.686 27.22C103.383 27.22 101.63 26.67 100.428 25.57C99.2397 24.47 98.6457 22.864 98.6457 20.752V14.108H97.0397V11.996H104.586V14.108H102.826V21.06C102.826 22.1747 103.097 23.0473 103.64 23.678C104.182 24.294 105.018 24.602 106.148 24.602C107.306 24.602 108.142 24.294 108.656 23.678C109.184 23.0473 109.448 22.1747 109.448 21.06V14.108H107.688V11.996H114.244V14.108H112.638V20.752C112.638 22.864 112.044 24.47 110.856 25.57C109.682 26.67 107.959 27.22 105.686 27.22ZM128.039 27L119.745 17.408L120.537 11.996L128.061 20.708L128.039 27ZM115.521 27V24.888H117.171V14.108H115.543V11.996H120.537L119.745 17.408V24.888H121.549V27H115.521ZM128.039 27L127.951 20.708H128.061V14.108H126.301V11.996H132.241V14.108H130.635V27H128.039ZM133.436 27V24.888H135.24V14.108H133.48V11.996H141.18V14.108H139.42V24.888H141.224V27H133.436Z" fill="white"/>
</svg>
